<svg xmlns="http://www.w3.org/2000/svg" width="1600" height="2000" viewBox="0 0 1600 2000" fill="none">
  <rect width="1600" height="2000" fill="#f4efe8"/>
  <rect width="1600" height="2000" fill="url(#grain)" opacity="0.35"/>
  <path d="M1032 176C1241 182 1411 292 1499 455C1569 585 1555 737 1481 841C1421 928 1340 982 1224 1013C1301 1040 1371 1091 1418 1179C1490 1315 1477 1492 1377 1647C1263 1823 1050 1918 831 1907C668 1898 512 1837 409 1728C315 1628 286 1499 319 1386C351 1275 432 1187 555 1114C407 1065 304 986 260 865C206 718 242 542 364 395C504 227 763 160 1032 176Z" fill="#f2a327"/>
  <path d="M987 189C1168 186 1314 252 1414 354C1516 458 1558 597 1527 743C1495 886 1385 996 1213 1058C1278 1087 1338 1132 1381 1189C1469 1306 1471 1487 1385 1637C1298 1788 1132 1881 959 1911C782 1942 598 1908 470 1819C349 1734 289 1606 297 1470C304 1340 377 1218 504 1122C386 1071 296 1003 251 903C197 786 204 648 247 531C294 406 385 303 513 236C651 164 819 165 987 189Z" stroke="#1d2a44" stroke-width="14"/>
  <path d="M944 360C1027 352 1108 379 1161 430C1211 478 1235 545 1228 611C1220 679 1184 742 1114 788C1059 825 988 850 907 860C957 891 1003 936 1029 1001C1062 1084 1058 1180 1018 1274C978 1368 904 1454 801 1515C697 1577 567 1610 446 1598C348 1588 267 1546 219 1473C178 1410 165 1326 188 1233C219 1115 307 1015 439 946C527 900 620 873 710 858C664 823 623 776 599 719C567 642 567 555 603 484C645 402 716 347 809 333C858 325 905 327 944 360Z" fill="#7f5f7c"/>
  <path d="M949 383C1006 377 1062 392 1100 428C1138 464 1157 514 1155 571C1152 623 1131 682 1085 736C1024 809 920 849 803 866C772 871 741 873 715 876C753 899 791 931 817 974C847 1025 856 1085 847 1153C833 1260 770 1367 655 1454C560 1525 447 1558 352 1551C283 1546 226 1519 192 1474C163 1435 154 1380 165 1319C180 1231 231 1150 314 1079C401 1003 515 944 645 903C701 885 756 874 810 865C747 828 698 781 670 720C647 669 642 612 655 556C669 493 705 443 762 410C815 381 883 373 949 383Z" stroke="#1d2a44" stroke-width="12"/>
  <path d="M1210 92C1294 128 1366 195 1428 294C1491 393 1527 501 1532 612C1538 729 1491 816 1395 874C1340 908 1266 938 1186 958C1272 998 1348 1069 1396 1156C1454 1262 1460 1387 1412 1511C1363 1636 1262 1756 1129 1843C991 1934 831 1981 681 1980C531 1979 403 1930 315 1838" stroke="#1d2a44" stroke-width="18" stroke-linecap="round"/>
  <path d="M178 1394C199 1316 239 1248 301 1195C365 1142 450 1104 550 1072C650 1042 753 1019 845 995C940 970 1014 941 1071 900C1130 859 1162 808 1172 748C1184 675 1167 610 1126 561C1087 515 1028 487 951 480C880 473 810 491 741 535C673 579 634 644 627 724" stroke="#1d2a44" stroke-width="13" stroke-linecap="round"/>
  <path d="M240 498C327 447 430 443 517 487C584 522 633 582 681 655C743 749 814 845 929 932C1006 991 1097 1035 1188 1078C1271 1118 1344 1168 1396 1248C1470 1362 1466 1522 1374 1666C1287 1803 1137 1897 978 1939" stroke="#f7d8a5" stroke-width="12" stroke-linecap="round"/>
  <path d="M396 214C491 175 603 166 705 193C803 219 895 278 956 367" stroke="#1d2a44" stroke-width="10" stroke-linecap="round"/>
  <path d="M115 648C181 589 260 555 344 553C438 551 518 593 588 666" stroke="#1d2a44" stroke-width="10" stroke-linecap="round"/>
  <path d="M1041 1148C1120 1168 1186 1215 1232 1292C1278 1370 1287 1466 1257 1564" stroke="#1d2a44" stroke-width="10" stroke-linecap="round"/>
  <path d="M706 514C761 468 842 447 914 458" stroke="#f7d8a5" stroke-width="10" stroke-linecap="round"/>
  <path d="M525 1672C639 1724 767 1741 881 1726C999 1710 1099 1667 1175 1596" stroke="#1d2a44" stroke-width="10" stroke-linecap="round"/>
  <defs>
    <filter id="noise">
      <feTurbulence type="fractalNoise" baseFrequency="0.85" numOctaves="2" stitchTiles="stitch"/>
      <feColorMatrix type="saturate" values="0"/>
      <feComponentTransfer>
        <feFuncA type="table" tableValues="0 0.2"/>
      </feComponentTransfer>
    </filter>
    <pattern id="grain" width="1600" height="2000" patternUnits="userSpaceOnUse">
      <rect width="1600" height="2000" filter="url(#noise)" opacity="0.8"/>
    </pattern>
  </defs>
</svg>
